<svg xmlns="http://www.w3.org/2000/svg" xmlns:xlink="http://www.w3.org/1999/xlink" width="72" height="72" viewBox="0 0 72 72">
  <defs>
    <clipPath id="clip-path">
      <rect id="Rectangle_4" data-name="Rectangle 4" width="72" height="72" transform="translate(158 2723)" fill="#fff"/>
    </clipPath>
    <clipPath id="clip-path-2">
      <rect id="Rectangle_3" data-name="Rectangle 3" width="68.727" height="72" fill="#fff"/>
    </clipPath>
  </defs>
  <g id="Mask_Group_1" data-name="Mask Group 1" transform="translate(-158 -2723)" clip-path="url(#clip-path)">
    <g id="Group_9044" data-name="Group 9044" transform="translate(159.636 2723)">
      <g id="Group_9043" data-name="Group 9043" transform="translate(0 0)" clip-path="url(#clip-path-2)">
        <path id="Path_1" data-name="Path 1" d="M30,64.668H27.333v-4a12.792,12.792,0,0,0-.387-2.427A35.607,35.607,0,0,1,26,50c0-4.44,7.231-10.2,8.056-10.844l7.033-4.816a35.88,35.88,0,0,0,2.648-3.749C45.756,27.408,46.894,26,52.667,26a1.332,1.332,0,0,1,1.315,1.555,47.857,47.857,0,0,1-2.76,9.645,1.332,1.332,0,0,1-.3.428c-.041.039-4.171,4.007-6.616,6.617l-1.945-1.824c2.216-2.365,5.659-5.7,6.52-6.529a42.757,42.757,0,0,0,2.155-7.184c-3.064.184-3.6,1.025-5.048,3.312a37.629,37.629,0,0,1-2.96,4.161,1.341,1.341,0,0,1-.276.252l-7.124,4.875C32.977,43.38,28.667,47.628,28.667,50a33.235,33.235,0,0,0,.887,7.677A14.591,14.591,0,0,1,30,60.668Z" transform="translate(8.085 7.788)" fill="#fff"/>
        <path id="Path_2" data-name="Path 2" d="M40.667,68.356H38V61.689c0-4.7,5.664-9.921,10.213-14.116,1.8-1.655,4.253-3.92,4.464-4.652-.011-1.7,1.161-13.153,1.315-14.644L52.829,17.8a2.88,2.88,0,0,0-1.12.793c-2.021,2.255-1.925,7.7-1.717,9.613a1.293,1.293,0,0,1,.008.145v2.667H47.333v-2.6c-.116-1.117-.705-8.152,2.388-11.607A5.589,5.589,0,0,1,54,14.938a1.333,1.333,0,0,1,1.325,1.187l1.333,12a1.347,1.347,0,0,1,0,.284c-.369,3.572-1.327,13.163-1.327,14.613,0,1.547-1.724,3.2-5.311,6.512-3.948,3.639-9.356,8.623-9.356,12.155Z" transform="translate(12.086 4.1)" fill="#fff"/>
        <path id="Path_3" data-name="Path 3" d="M31.667,64.668H29v-4a14.591,14.591,0,0,1,.447-2.989A33.235,33.235,0,0,0,30.334,50c0-2.373-4.311-6.621-7.028-8.741l-7.057-4.825a1.341,1.341,0,0,1-.276-.252,37.63,37.63,0,0,1-2.96-4.161c-1.451-2.287-1.984-3.128-5.048-3.312a42.757,42.757,0,0,0,2.155,7.184c.861.831,4.3,4.164,6.52,6.529l-1.944,1.824c-2.447-2.611-6.576-6.579-6.617-6.617a1.332,1.332,0,0,1-.3-.428,47.857,47.857,0,0,1-2.76-9.645A1.332,1.332,0,0,1,6.333,26c5.773,0,6.911,1.407,8.929,4.591a35.88,35.88,0,0,0,2.648,3.749l6.967,4.768C25.77,39.8,33,45.561,33,50a35.607,35.607,0,0,1-.947,8.24,12.791,12.791,0,0,0-.387,2.427Z" transform="translate(1.085 7.788)" fill="#fff"/>
        <path id="Path_4" data-name="Path 4" d="M18.667,68.356H16V61.689c0-3.532-5.408-8.516-9.356-12.155-3.587-3.308-5.311-4.965-5.311-6.512,0-1.451-.957-11.041-1.327-14.613a1.348,1.348,0,0,1,0-.284l1.333-12a1.333,1.333,0,0,1,1.325-1.187,5.589,5.589,0,0,1,4.279,1.881c3.093,3.455,2.5,10.489,2.388,11.607v2.6H6.667V28.355a1.291,1.291,0,0,1,.008-.145c.208-1.911.3-7.359-1.717-9.613a2.88,2.88,0,0,0-1.12-.793L2.675,28.277C2.828,29.767,4,41.224,4,43.022c.2.631,2.657,2.9,4.453,4.551C13,51.768,18.667,56.989,18.667,61.689Z" transform="translate(-0.582 4.1)" fill="#fff"/>
        <path id="Path_5" data-name="Path 5" d="M29.667,42.667A14.452,14.452,0,0,1,15,28.476a13.942,13.942,0,0,1,1.749-6.732L28.5.683a1.334,1.334,0,0,1,2.328,0L42.579,21.74a13.945,13.945,0,0,1,1.755,6.736A14.452,14.452,0,0,1,29.667,42.667m0-38.6L19.081,23.04a11.242,11.242,0,0,0-1.415,5.436A11.782,11.782,0,0,0,29.667,40a11.782,11.782,0,0,0,12-11.524,11.25,11.25,0,0,0-1.419-5.439Z" transform="translate(4.419 -0.88)" fill="#fff"/>
        <path id="Path_6" data-name="Path 6" d="M28.333,30.667A9.345,9.345,0,0,1,19,21.333a1.333,1.333,0,0,1,2.667,0A6.674,6.674,0,0,0,28.333,28a1.333,1.333,0,1,1,0,2.667" transform="translate(5.752 5.787)" fill="#fff"/>
      </g>
    </g>
  </g>
</svg>
