<svg xmlns="http://www.w3.org/2000/svg" xmlns:xlink="http://www.w3.org/1999/xlink" width="72" height="72" viewBox="0 0 72 72">
  <defs>
    <clipPath id="clip-path">
      <rect id="Rectangle_6" data-name="Rectangle 6" width="72" height="72" transform="translate(158 2723)" fill="#fff"/>
    </clipPath>
    <clipPath id="clip-path-2">
      <rect id="Rectangle_5" data-name="Rectangle 5" width="50.4" height="72" transform="translate(0 0)" fill="#fff"/>
    </clipPath>
  </defs>
  <g id="Mask_Group_2" data-name="Mask Group 2" transform="translate(-158 -2723)" clip-path="url(#clip-path)">
    <g id="Group_9046" data-name="Group 9046" transform="translate(168.8 2723)">
      <g id="Group_9045" data-name="Group 9045" transform="translate(0 0)" clip-path="url(#clip-path-2)">
        <path id="Path_7" data-name="Path 7" d="M50.31,41.281H47.729l0-5.267c-.013-.164-1.566-16.436-18.774-19.984l-1.165-.388-.214-.214,9.46-9.46a1.289,1.289,0,0,0,0-1.824L33.265.378a1.291,1.291,0,0,0-1.824,0l-9.46,9.46-1.72-1.72a1.291,1.291,0,0,0-1.824,0l-6.45,6.45a1.29,1.29,0,0,0-.378.913v2.558l-.89-.891a1.291,1.291,0,0,0-1.824,0L5.538,20.5a1.289,1.289,0,0,0,0,1.824l.854.855L1.668,27.907a1.291,1.291,0,0,0,0,1.825L5.1,33.163a1.289,1.289,0,0,0,1.824,0l4.687-4.687v8.935A1.289,1.289,0,0,0,12.9,38.7h5.16a1.289,1.289,0,0,0,1.29-1.29V34.542a1.053,1.053,0,0,0,.134-.089L22.842,31.1a1.289,1.289,0,0,0,0-1.824l-.479-.479,4.761-3.929A16.031,16.031,0,0,1,33.54,37.682v3.6H32.25a1.289,1.289,0,0,0-1.29,1.29v1.29H3.87a1.29,1.29,0,0,0,0,2.58H30.96v12.9H24.51V50.313a1.289,1.289,0,0,0-1.29-1.29h-12.9a1.289,1.289,0,0,0-1.29,1.29v9.029H1.29A1.289,1.289,0,0,0,0,60.632v5.16a1.289,1.289,0,0,0,1.29,1.29H3.87v3.87a1.289,1.289,0,0,0,1.29,1.29H12.9a1.289,1.289,0,0,0,1.29-1.29v-3.87H37.41v3.87a1.289,1.289,0,0,0,1.29,1.29h7.74a1.289,1.289,0,0,0,1.29-1.29v-3.87h2.58a1.289,1.289,0,0,0,1.29-1.29V42.571a1.289,1.289,0,0,0-1.29-1.29M32.353,3.115,34.3,5.057,25.749,13.6l-1.943-1.941ZM6.011,30.427,4.4,28.819l3.812-3.811,1.607,1.607Zm8.179,5.694V30.982l2.58,2.58v2.559Zm4.382-4.4-4.751-4.754-.021-.019-1.233-1.233-.006-.01-.009-.006-3.42-3.42,0,0,0,0-.851-.851,1.534-1.531,2.172,2.172.019.019,8.106,8.108Zm7.228-9.1-5.27,4.349-6.34-6.342v-4.6l5.16-5.16,6.45,6.45Zm2.58-.028V18.549A20.421,20.421,0,0,1,45.15,36.121v5.16H36.12v-3.6a18.609,18.609,0,0,0-7.74-15.1m5.16,21.277H49.02v15.48H33.54ZM11.611,51.6H21.93v7.739H11.611Zm0,18.059H6.45v-2.58h5.16Zm33.54,0H39.99v-2.58h5.16Zm3.87-5.16H2.58v-2.58H49.02Z" transform="translate(-0.591 -0.12)" fill="#fff"/>
        <path id="Path_8" data-name="Path 8" d="M33.16,36a5.159,5.159,0,1,0,5.16,5.159A5.165,5.165,0,0,0,33.16,36m0,7.739a2.579,2.579,0,1,1,2.58-2.58,2.583,2.583,0,0,1-2.58,2.58" transform="translate(7.53 10.32)" fill="#fff"/>
      </g>
    </g>
  </g>
</svg>
