<svg xmlns="http://www.w3.org/2000/svg" xmlns:xlink="http://www.w3.org/1999/xlink" width="72" height="72" viewBox="0 0 72 72">
  <defs>
    <clipPath id="clip-path">
      <rect id="Rectangle_8" data-name="Rectangle 8" width="72" height="72" transform="translate(158 2723)" fill="#fff"/>
    </clipPath>
    <clipPath id="clip-path-2">
      <rect id="Rectangle_7" data-name="Rectangle 7" width="72" height="61.2" transform="translate(0 0)" fill="#fff"/>
    </clipPath>
  </defs>
  <g id="Mask_Group_3" data-name="Mask Group 3" transform="translate(-158 -2723)" clip-path="url(#clip-path)">
    <g id="Group_9048" data-name="Group 9048" transform="translate(158 2728.4)">
      <g id="Group_9047" data-name="Group 9047" transform="translate(0 0)" clip-path="url(#clip-path-2)">
        <path id="Path_9" data-name="Path 9" d="M22.3,14.261V18.15h2.593V14.261H35.261V18.15h2.593V14.261a1.3,1.3,0,0,0,1.3-1.3V1.3a1.3,1.3,0,0,0-1.3-1.3H22.3A1.3,1.3,0,0,0,21,1.3V12.965a1.3,1.3,0,0,0,1.3,1.3M28.779,2.593h2.593v9.075H28.779Zm7.779,9.075H33.965V2.593h2.593ZM23.593,2.593h2.593v9.075H23.593Z" transform="translate(5.925 -0.621)" fill="#fff"/>
        <path id="Path_10" data-name="Path 10" d="M38.3,14.261V18.15h2.593V14.261H51.261V18.15h2.593V14.261a1.3,1.3,0,0,0,1.3-1.3V1.3a1.3,1.3,0,0,0-1.3-1.3H38.3A1.3,1.3,0,0,0,37,1.3V12.965a1.3,1.3,0,0,0,1.3,1.3M44.779,2.593h2.593v9.075H44.779Zm7.779,9.075H49.965V2.593h2.593ZM39.593,2.593h2.593v9.075H39.593Z" transform="translate(10.668 -0.621)" fill="#fff"/>
        <path id="Path_11" data-name="Path 11" d="M6.3,14.261V18.15H8.889V14.261H19.261V18.15h2.593V14.261a1.3,1.3,0,0,0,1.3-1.3V1.3a1.3,1.3,0,0,0-1.3-1.3H6.3A1.3,1.3,0,0,0,5,1.3V12.965a1.3,1.3,0,0,0,1.3,1.3M12.779,2.593h2.593v9.075H12.779Zm7.779,9.075H17.965V2.593h2.593ZM7.593,2.593h2.593v9.075H7.593Z" transform="translate(1.181 -0.621)" fill="#fff"/>
        <path id="Path_12" data-name="Path 12" d="M71.305,43.226h-1.3V17.3a1.3,1.3,0,0,0-1.3-1.3H3.889a1.3,1.3,0,0,0-1.3,1.3V43.226H1.3a1.3,1.3,0,0,0-1.3,1.3V56.19a1.3,1.3,0,0,0,1.3,1.3H71.305a1.3,1.3,0,0,0,1.3-1.3V44.522a1.3,1.3,0,0,0-1.3-1.3M62.23,26.372H51.858V18.593H62.23ZM41.487,22.482H31.115V18.593H41.487ZM20.743,30.261H10.372V18.593H20.743ZM5.186,18.593H7.779v22.04h2.593V32.854H20.743v7.779h2.593V18.593h5.186v22.04h2.593V25.075H41.487V40.633H44.08V18.593h5.186v22.04h2.593V28.965H62.23V40.633h2.593V18.593h2.593V43.226H5.186Zm56.86,27.226a5.161,5.161,0,0,1-10,0Zm-20.743,0a5.161,5.161,0,0,1-10,0Zm-20.743,0a5.161,5.161,0,0,1-10,0Zm49.45,9.075H2.593V45.819H7.9a7.769,7.769,0,0,0,15.324,0h5.419a7.769,7.769,0,0,0,15.324,0h5.419a7.769,7.769,0,0,0,15.324,0h5.3Z" transform="translate(-0.301 4.123)" fill="#fff"/>
      </g>
    </g>
  </g>
</svg>
