<svg xmlns="http://www.w3.org/2000/svg" xmlns:xlink="http://www.w3.org/1999/xlink" width="72" height="72" viewBox="0 0 72 72">
  <defs>
    <clipPath id="clip-path">
      <rect id="Rectangle_10" data-name="Rectangle 10" width="72" height="72" transform="translate(158 2723)" fill="#fff"/>
    </clipPath>
    <clipPath id="clip-path-2">
      <rect id="Rectangle_9" data-name="Rectangle 9" width="64.8" height="64.8" transform="translate(0 0)" fill="#fff"/>
    </clipPath>
  </defs>
  <g id="Mask_Group_4" data-name="Mask Group 4" transform="translate(-158 -2723)" clip-path="url(#clip-path)">
    <g id="Group_9050" data-name="Group 9050" transform="translate(161.6 2726.6)">
      <g id="Group_9049" data-name="Group 9049" transform="translate(0 0)" clip-path="url(#clip-path-2)">
        <path id="Path_13" data-name="Path 13" d="M45.358,15.078a2.362,2.362,0,0,0,2.063-3.507c-.007-.008-.012-.02-.019-.029L45.358,8l-2.044,3.542c-.006.009-.012.021-.018.029a2.361,2.361,0,0,0,2.062,3.507" transform="translate(7.096 0.805)" fill="#fff"/>
        <path id="Path_14" data-name="Path 14" d="M53.337,4H39.18A1.179,1.179,0,0,0,38,5.18V19.337a1.179,1.179,0,0,0,1.18,1.18H53.337a1.179,1.179,0,0,0,1.18-1.18V5.18A1.179,1.179,0,0,0,53.337,4m-1.18,14.157h-11.8V6.359h11.8Z" transform="translate(6.197 0.086)" fill="#fff"/>
        <path id="Path_15" data-name="Path 15" d="M62.526,0H43.65a3.544,3.544,0,0,0-3.539,3.539V27.134a5.905,5.905,0,0,0,5.9,5.9h3.539v3.539a5.905,5.905,0,0,1-5.9,5.9H27.134a5.905,5.905,0,0,1-5.9-5.9V34.212h4.719a4.724,4.724,0,0,0,4.719-4.719V7.078a4.724,4.724,0,0,0-4.719-4.719H22.513V4.719h3.441a2.362,2.362,0,0,1,2.359,2.359V25.43a4.67,4.67,0,0,0-2.359-.656H22.415v2.359h3.539a2.359,2.359,0,1,1,0,4.719H4.719a2.359,2.359,0,1,1,0-4.719h11.8a4.724,4.724,0,0,0,4.719-4.719V4.719A4.724,4.724,0,0,0,16.516,0H4.719A4.724,4.724,0,0,0,0,4.719V29.493a4.724,4.724,0,0,0,4.719,4.719H8.258V50.729a8.269,8.269,0,0,0,8.258,8.258h9.438v2.359a1.179,1.179,0,0,0,1.18,1.18h7.078a1.147,1.147,0,0,0,.591-.182c1.788,1.516,5.04,3.721,8.847,3.721,8.52,0,12.977-5.376,12.977-8.258,0-1.721-1.326-3.779-3.461-5.37a15.6,15.6,0,0,0-9.516-2.888c-3.807,0-7.058,2.2-8.847,3.721a1.147,1.147,0,0,0-.591-.182H27.134a1.179,1.179,0,0,0-1.18,1.18v2.359H16.516a5.905,5.905,0,0,1-5.9-5.9V34.212h8.258v2.359a8.269,8.269,0,0,0,8.258,8.258H43.65a8.269,8.269,0,0,0,8.258-8.258V33.033h8.258a5.905,5.905,0,0,0,5.9-5.9V3.539A3.544,3.544,0,0,0,62.526,0M2.359,4.719A2.362,2.362,0,0,1,4.719,2.359h11.8a2.362,2.362,0,0,1,2.359,2.359v17.7a2.362,2.362,0,0,1-2.359,2.359H4.719a4.683,4.683,0,0,0-2.359.634ZM54.268,57.807c0,1.422-3.195,5.9-10.618,5.9-3.885,0-7.266-3.038-8.258-4.018V55.927c.992-.98,4.373-4.018,8.258-4.018,7.423,0,10.618,4.477,10.618,5.9M28.314,55.448h4.719v4.719H28.314ZM63.706,27.134a3.544,3.544,0,0,1-3.539,3.539H46.01a3.544,3.544,0,0,1-3.539-3.539V3.539a1.18,1.18,0,0,1,1.18-1.18H62.526a1.18,1.18,0,0,1,1.18,1.18Z" transform="translate(-0.633 -0.633)" fill="#fff"/>
        <path id="Path_16" data-name="Path 16" d="M41.359,20a2.359,2.359,0,1,0,2.359,2.359A2.361,2.361,0,0,0,41.359,20" transform="translate(6.377 2.962)" fill="#fff"/>
        <path id="Path_17" data-name="Path 17" d="M49.359,20a2.359,2.359,0,1,0,2.359,2.359A2.361,2.361,0,0,0,49.359,20" transform="translate(7.815 2.962)" fill="#fff"/>
      </g>
    </g>
  </g>
</svg>
