<svg xmlns="http://www.w3.org/2000/svg" width="220" height="220" viewBox="0 0 220 220">
  <g id="Group_11951" data-name="Group 11951" transform="translate(-3726.381 -7384.381)" opacity="0.852">
    <circle id="Ellipse_145" data-name="Ellipse 145" cx="110" cy="110" r="110" transform="translate(3726.381 7384.381)" fill="#023b70"/>
    <path id="Path_53215" data-name="Path 53215" d="M33.33,18.32V25H31.08V7.938h6.293a6.322,6.322,0,0,1,4.389,1.43,4.847,4.847,0,0,1,1.588,3.785A4.783,4.783,0,0,1,41.8,16.979,6.6,6.6,0,0,1,37.35,18.32Zm0-1.84h4.043a4.047,4.047,0,0,0,2.766-.85,3.1,3.1,0,0,0,.961-2.455,3.207,3.207,0,0,0-.961-2.437A3.791,3.791,0,0,0,37.5,9.789H33.33ZM48.635,25h-2.25V7.938h2.25ZM65.3,19.586a6.277,6.277,0,0,1-2,4.178,6.548,6.548,0,0,1-4.471,1.471,6.012,6.012,0,0,1-4.846-2.168,8.722,8.722,0,0,1-1.822-5.8V15.625a9.722,9.722,0,0,1,.85-4.184A6.346,6.346,0,0,1,55.42,8.67,6.705,6.705,0,0,1,59.029,7.7a6.165,6.165,0,0,1,4.359,1.518,6.353,6.353,0,0,1,1.91,4.2H63.037a4.881,4.881,0,0,0-1.271-2.953,3.854,3.854,0,0,0-2.736-.914,4.027,4.027,0,0,0-3.381,1.594,7.312,7.312,0,0,0-1.225,4.535v1.652a7.516,7.516,0,0,0,1.16,4.418,3.75,3.75,0,0,0,3.246,1.641,4.33,4.33,0,0,0,2.877-.85,4.715,4.715,0,0,0,1.33-2.959Zm3.164,6.879H66.6L73.725,7.938h1.852Zm14.824-9.07a10.58,10.58,0,0,1-4.213-2.045,3.907,3.907,0,0,1-1.318-2.994,4.127,4.127,0,0,1,1.611-3.334A6.4,6.4,0,0,1,83.557,7.7a6.99,6.99,0,0,1,3.135.68,5.154,5.154,0,0,1,2.133,1.875,4.8,4.8,0,0,1,.756,2.613H87.318a3.1,3.1,0,0,0-.984-2.432,4.012,4.012,0,0,0-2.777-.885,4.1,4.1,0,0,0-2.6.732,2.442,2.442,0,0,0-.932,2.033,2.2,2.2,0,0,0,.885,1.764A8.685,8.685,0,0,0,83.926,15.4a13.947,13.947,0,0,1,3.328,1.318A5.05,5.05,0,0,1,89.035,18.4a4.292,4.292,0,0,1,.58,2.262A3.987,3.987,0,0,1,88,23.986a6.9,6.9,0,0,1-4.324,1.248,8.02,8.02,0,0,1-3.281-.674,5.522,5.522,0,0,1-2.35-1.846,4.5,4.5,0,0,1-.826-2.66h2.262A2.939,2.939,0,0,0,80.621,22.5a4.811,4.811,0,0,0,3.053.9,4.423,4.423,0,0,0,2.73-.727,2.36,2.36,0,0,0,.949-1.98,2.317,2.317,0,0,0-.879-1.939A10.133,10.133,0,0,0,83.287,17.395Zm27.75,5.367a5.2,5.2,0,0,1-2.42,1.857,9.775,9.775,0,0,1-3.615.615,7.011,7.011,0,0,1-3.7-.979,6.519,6.519,0,0,1-2.5-2.783,9.613,9.613,0,0,1-.908-4.184V15.8a8.973,8.973,0,0,1,1.8-5.977A6.268,6.268,0,0,1,104.744,7.7a6.474,6.474,0,0,1,4.3,1.365,5.947,5.947,0,0,1,1.992,3.873h-2.25a3.717,3.717,0,0,0-4.031-3.387,3.984,3.984,0,0,0-3.428,1.588,7.748,7.748,0,0,0-1.178,4.6v1.395a7.262,7.262,0,0,0,1.313,4.564,4.256,4.256,0,0,0,3.551,1.693,7.826,7.826,0,0,0,2.215-.281,3.423,3.423,0,0,0,1.57-.949V18.332H104.85V16.5h6.188Zm6.656-14.824,5.578,13.922L128.85,7.938h2.918V25h-2.25V18.355l.211-7.172L124.127,25H122.4l-5.59-13.781.223,7.137V25h-2.25V7.938Zm20.3,10.383V25h-2.25V7.938h6.293a6.322,6.322,0,0,1,4.389,1.43,4.847,4.847,0,0,1,1.588,3.785,4.783,4.783,0,0,1-1.553,3.826,6.6,6.6,0,0,1-4.447,1.342Zm0-1.84h4.043a4.047,4.047,0,0,0,2.766-.85,3.1,3.1,0,0,0,.961-2.455,3.207,3.207,0,0,0-.961-2.437,3.791,3.791,0,0,0-2.637-.949H137.99ZM42.26,51.586a6.277,6.277,0,0,1-2,4.178,6.548,6.548,0,0,1-4.471,1.471,6.012,6.012,0,0,1-4.846-2.168,8.722,8.722,0,0,1-1.822-5.8V47.625a9.722,9.722,0,0,1,.85-4.184,6.346,6.346,0,0,1,2.408-2.771A6.705,6.705,0,0,1,35.99,39.7a6.165,6.165,0,0,1,4.359,1.518,6.353,6.353,0,0,1,1.91,4.2H40a4.881,4.881,0,0,0-1.271-2.953,3.854,3.854,0,0,0-2.736-.914,4.027,4.027,0,0,0-3.381,1.594,7.312,7.312,0,0,0-1.225,4.535v1.652a7.516,7.516,0,0,0,1.16,4.418,3.75,3.75,0,0,0,3.246,1.641,4.33,4.33,0,0,0,2.877-.85A4.715,4.715,0,0,0,40,51.586Zm7.992,5.648a5.54,5.54,0,0,1-4.2-1.693,6.285,6.285,0,0,1-1.617-4.529v-.4a7.609,7.609,0,0,1,.721-3.369,5.622,5.622,0,0,1,2.016-2.32,5.068,5.068,0,0,1,2.807-.838,4.749,4.749,0,0,1,3.844,1.629A7.053,7.053,0,0,1,55.2,50.379v.9h-8.59a4.507,4.507,0,0,0,1.1,3.029,3.444,3.444,0,0,0,2.666,1.154A3.776,3.776,0,0,0,52.314,55a4.888,4.888,0,0,0,1.395-1.242l1.324,1.031A5.325,5.325,0,0,1,50.252,57.234Zm-.27-11.367a2.892,2.892,0,0,0-2.2.955,4.642,4.642,0,0,0-1.1,2.678h6.352v-.164a4.129,4.129,0,0,0-.891-2.561A2.723,2.723,0,0,0,49.982,45.867Zm13.852.4a6.5,6.5,0,0,0-1.066-.082A2.857,2.857,0,0,0,59.873,48v9H57.705V44.32h2.109l.035,1.465a3.376,3.376,0,0,1,3.023-1.7,2.215,2.215,0,0,1,.961.164Zm5.52-5.016v3.07h2.367V46H69.354v7.863A1.756,1.756,0,0,0,69.67,55a1.333,1.333,0,0,0,1.078.381,5.249,5.249,0,0,0,1.031-.141V57a6.285,6.285,0,0,1-1.664.234,2.7,2.7,0,0,1-2.191-.879,3.776,3.776,0,0,1-.738-2.5V46H64.877V44.32h2.309V41.25ZM76.607,57H74.439V44.32h2.168ZM74.264,40.957a1.294,1.294,0,0,1,.322-.891,1.21,1.21,0,0,1,.955-.363,1.229,1.229,0,0,1,.961.363,1.28,1.28,0,0,1,.328.891,1.238,1.238,0,0,1-.328.879,1.251,1.251,0,0,1-.961.352,1.232,1.232,0,0,1-.955-.352A1.251,1.251,0,0,1,74.264,40.957ZM80.8,57V46h-2V44.32h2V43.242a4.405,4.405,0,0,1,1.213-3.3,4.7,4.7,0,0,1,3.428-1.184,10.321,10.321,0,0,1,3.316.715L88.4,41.3a7.511,7.511,0,0,0-2.789-.586,2.729,2.729,0,0,0-2.01.627,2.585,2.585,0,0,0-.615,1.881v1.1h2.59V46h-2.59V57Zm9.035,0h-2.18V44.32h2.18Zm8.613-1.535a3.123,3.123,0,0,0,2.027-.7A2.474,2.474,0,0,0,101.439,53h2.051a3.931,3.931,0,0,1-.75,2.074,4.94,4.94,0,0,1-1.846,1.57,5.326,5.326,0,0,1-2.443.586,5.223,5.223,0,0,1-4.119-1.729A6.884,6.884,0,0,1,92.8,50.777v-.363a7.634,7.634,0,0,1,.68-3.293,5.177,5.177,0,0,1,1.951-2.238,5.543,5.543,0,0,1,3.006-.8,5.085,5.085,0,0,1,3.545,1.277,4.565,4.565,0,0,1,1.506,3.316h-2.051a2.988,2.988,0,0,0-.932-2.021,2.9,2.9,0,0,0-2.068-.791,3.034,3.034,0,0,0-2.561,1.189,5.586,5.586,0,0,0-.908,3.439v.41a5.475,5.475,0,0,0,.9,3.375A3.049,3.049,0,0,0,98.451,55.465ZM113.756,57a4.554,4.554,0,0,1-.3-1.336,4.837,4.837,0,0,1-3.609,1.57,4.476,4.476,0,0,1-3.076-1.061,3.431,3.431,0,0,1-1.2-2.689,3.584,3.584,0,0,1,1.506-3.076,7.1,7.1,0,0,1,4.236-1.1h2.109v-1a2.435,2.435,0,0,0-.68-1.811,2.732,2.732,0,0,0-2-.674,3.161,3.161,0,0,0-1.945.586A1.727,1.727,0,0,0,108,47.836h-2.18A2.992,2.992,0,0,1,106.5,46a4.6,4.6,0,0,1,1.828-1.4,6.15,6.15,0,0,1,2.537-.516,5.013,5.013,0,0,1,3.434,1.1,3.953,3.953,0,0,1,1.289,3.018v5.836a7.135,7.135,0,0,0,.445,2.777V57Zm-3.6-1.652a3.81,3.81,0,0,0,1.934-.527,3.19,3.19,0,0,0,1.324-1.371v-2.6h-1.7q-3.984,0-3.984,2.332a1.974,1.974,0,0,0,.68,1.594A2.612,2.612,0,0,0,110.158,55.348Zm11.766-14.1v3.07h2.367V46h-2.367v7.863A1.756,1.756,0,0,0,122.24,55a1.333,1.333,0,0,0,1.078.381,5.249,5.249,0,0,0,1.031-.141V57a6.285,6.285,0,0,1-1.664.234,2.7,2.7,0,0,1-2.191-.879,3.776,3.776,0,0,1-.738-2.5V46h-2.309V44.32h2.309V41.25Zm10.16,15.984a5.54,5.54,0,0,1-4.2-1.693,6.285,6.285,0,0,1-1.617-4.529v-.4a7.609,7.609,0,0,1,.721-3.369,5.622,5.622,0,0,1,2.016-2.32,5.068,5.068,0,0,1,2.807-.838,4.749,4.749,0,0,1,3.844,1.629,7.053,7.053,0,0,1,1.371,4.664v.9h-8.59a4.507,4.507,0,0,0,1.1,3.029,3.444,3.444,0,0,0,2.666,1.154A3.776,3.776,0,0,0,134.146,55a4.888,4.888,0,0,0,1.395-1.242l1.324,1.031A5.325,5.325,0,0,1,132.084,57.234Zm-.27-11.367a2.892,2.892,0,0,0-2.2.955,4.642,4.642,0,0,0-1.1,2.678h6.352v-.164a4.129,4.129,0,0,0-.891-2.561A2.723,2.723,0,0,0,131.814,45.867Zm15.105,7.77a1.6,1.6,0,0,0-.662-1.365,6.373,6.373,0,0,0-2.309-.838,10.915,10.915,0,0,1-2.613-.844,3.718,3.718,0,0,1-1.43-1.172,2.8,2.8,0,0,1-.463-1.617,3.289,3.289,0,0,1,1.318-2.637,5.149,5.149,0,0,1,3.369-1.078,5.3,5.3,0,0,1,3.5,1.113,3.536,3.536,0,0,1,1.342,2.848h-2.18a1.957,1.957,0,0,0-.756-1.535,2.832,2.832,0,0,0-1.9-.645,2.964,2.964,0,0,0-1.852.516,1.623,1.623,0,0,0-.668,1.348,1.315,1.315,0,0,0,.621,1.184,7.642,7.642,0,0,0,2.244.762,11.693,11.693,0,0,1,2.631.867,3.838,3.838,0,0,1,1.494,1.213,2.982,2.982,0,0,1,.486,1.729,3.245,3.245,0,0,1-1.359,2.725,5.7,5.7,0,0,1-3.527,1.025,6.385,6.385,0,0,1-2.7-.539,4.384,4.384,0,0,1-1.834-1.506,3.629,3.629,0,0,1-.662-2.092h2.168a2.245,2.245,0,0,0,.873,1.729,3.387,3.387,0,0,0,2.15.639,3.5,3.5,0,0,0,1.975-.5A1.53,1.53,0,0,0,146.92,53.637Z" transform="translate(3747.381 7462.381)" fill="#fff"/>
  </g>
</svg>
