<svg xmlns="http://www.w3.org/2000/svg" xmlns:xlink="http://www.w3.org/1999/xlink" width="92" height="92" viewBox="0 0 92 92">
  <defs>
    <clipPath id="clip-path">
      <rect id="Rectangle_12620" data-name="Rectangle 12620" width="92" height="92" transform="translate(599 6768)" fill="none" stroke="#707070" stroke-width="1"/>
    </clipPath>
    <clipPath id="clip-path-2">
      <rect id="Rectangle_10712" data-name="Rectangle 10712" width="88.522" height="64.202" fill="none" stroke="#fff" stroke-width="2"/>
    </clipPath>
  </defs>
  <g id="Mask_Group_1453" data-name="Mask Group 1453" transform="translate(-599 -6768)" clip-path="url(#clip-path)">
    <g id="Group_9297" data-name="Group 9297" transform="translate(601 6782)">
      <line id="Line_294" data-name="Line 294" x2="13.011" transform="translate(16.119 10.817)" fill="none" stroke="#fff" stroke-linecap="round" stroke-linejoin="round" stroke-width="2"/>
      <line id="Line_295" data-name="Line 295" x2="18.654" transform="translate(13.302 20.85)" fill="none" stroke="#fff" stroke-linecap="round" stroke-linejoin="round" stroke-width="2"/>
      <g id="Group_9296" data-name="Group 9296" transform="translate(0 0)">
        <g id="Group_9295" data-name="Group 9295" clip-path="url(#clip-path-2)">
          <path id="Path_40953" data-name="Path 40953" d="M21.068,10.553V31.858a2.887,2.887,0,0,1-2.891,2.891H11.088a2.886,2.886,0,0,1-2.895-2.891l0-21.305" transform="translate(7.995 10.297)" fill="none" stroke="#fff" stroke-linecap="round" stroke-linejoin="round" stroke-width="2"/>
          <line id="Line_296" data-name="Line 296" x1="0.004" y2="8.348" transform="translate(22.628 45.046)" fill="none" stroke="#fff" stroke-linecap="round" stroke-linejoin="round" stroke-width="2"/>
          <line id="Line_297" data-name="Line 297" y1="10.033" transform="translate(19.189 10.817)" fill="none" stroke="#fff" stroke-linecap="round" stroke-linejoin="round" stroke-width="2"/>
          <line id="Line_298" data-name="Line 298" y1="10.033" transform="translate(26.066 10.817)" fill="none" stroke="#fff" stroke-linecap="round" stroke-linejoin="round" stroke-width="2"/>
          <path id="Path_40954" data-name="Path 40954" d="M46.97,13.137a9.861,9.861,0,1,1-12.9-5.3A9.861,9.861,0,0,1,46.97,13.137Z" transform="translate(27.331 6.903)" fill="none" stroke="#fff" stroke-linecap="round" stroke-linejoin="round" stroke-width="2"/>
          <line id="Line_299" data-name="Line 299" transform="translate(66.21 20.923)" fill="none" stroke="#fff" stroke-linecap="round" stroke-linejoin="round" stroke-width="2"/>
          <line id="Line_300" data-name="Line 300" transform="translate(67.182 26.735)" fill="none" stroke="#fff" stroke-linecap="round" stroke-linejoin="round" stroke-width="2"/>
          <line id="Line_301" data-name="Line 301" transform="translate(61.791 25.261)" fill="none" stroke="#fff" stroke-linecap="round" stroke-linejoin="round" stroke-width="2"/>
          <line id="Line_302" data-name="Line 302" x1="1.284" y1="3.09" transform="translate(59.722 10.713)" fill="none" stroke="#fff" stroke-linecap="round" stroke-linejoin="round" stroke-width="2"/>
          <line id="Line_303" data-name="Line 303" x1="3.151" y1="1.296" transform="translate(52.049 18.435)" fill="none" stroke="#fff" stroke-linecap="round" stroke-linejoin="round" stroke-width="2"/>
          <line id="Line_304" data-name="Line 304" x1="2.337" y2="0.976" transform="translate(52.079 28.348)" fill="none" stroke="#fff" stroke-linecap="round" stroke-linejoin="round" stroke-width="2"/>
          <line id="Line_305" data-name="Line 305" x1="1.3" y2="3.157" transform="translate(59.8 33.836)" fill="none" stroke="#fff" stroke-linecap="round" stroke-linejoin="round" stroke-width="2"/>
          <line id="Line_306" data-name="Line 306" x2="0.974" y2="2.335" transform="translate(69.71 34.631)" fill="none" stroke="#fff" stroke-linecap="round" stroke-linejoin="round" stroke-width="2"/>
          <line id="Line_307" data-name="Line 307" x2="3.365" y2="1.381" transform="translate(74.995 27.862)" fill="none" stroke="#fff" stroke-linecap="round" stroke-linejoin="round" stroke-width="2"/>
          <line id="Line_308" data-name="Line 308" y1="2.96" x2="1.219" transform="translate(69.39 10.685)" fill="none" stroke="#fff" stroke-linecap="round" stroke-linejoin="round" stroke-width="2"/>
          <line id="Line_309" data-name="Line 309" x1="3.033" y2="1.267" transform="translate(52.074 28.059)" fill="none" stroke="#fff" stroke-linecap="round" stroke-linejoin="round" stroke-width="2"/>
          <line id="Line_310" data-name="Line 310" x2="1.298" y2="3.106" transform="translate(69.384 33.863)" fill="none" stroke="#fff" stroke-linecap="round" stroke-linejoin="round" stroke-width="2"/>
          <line id="Line_311" data-name="Line 311" y1="1.369" x2="3.276" transform="translate(75.057 18.362)" fill="none" stroke="#fff" stroke-linecap="round" stroke-linejoin="round" stroke-width="2"/>
          <path id="Rectangle_10711" data-name="Rectangle 10711" d="M3.48,0h78.6a3.481,3.481,0,0,1,3.481,3.481V57.758a3.481,3.481,0,0,1-3.481,3.481H3.481A3.481,3.481,0,0,1,0,57.758V3.48A3.48,3.48,0,0,1,3.48,0Z" transform="translate(1.481 1.482)" fill="none" stroke="#fff" stroke-linecap="round" stroke-linejoin="round" stroke-width="2"/>
          <line id="Line_312" data-name="Line 312" y2="61.239" transform="translate(44.26 1.481)" fill="none" stroke="#fff" stroke-linecap="round" stroke-linejoin="round" stroke-width="2"/>
          <line id="Line_313" data-name="Line 313" x2="22.264" transform="translate(54.584 46.231)" fill="none" stroke="#fff" stroke-linecap="round" stroke-linejoin="round" stroke-width="2"/>
          <line id="Line_314" data-name="Line 314" x2="9.644" transform="translate(66.941 54.099)" fill="none" stroke="#fff" stroke-linecap="round" stroke-linejoin="round" stroke-width="2"/>
        </g>
      </g>
    </g>
  </g>
</svg>
